<svg width="53" height="53" viewBox="0 0 53 53" fill="none" xmlns="http://www.w3.org/2000/svg">
<path d="M26.5 0C33.5282 0 40.2686 2.79196 45.2383 7.76167C50.208 12.7314 53 19.4718 53 26.5C53 33.5282 50.208 40.2686 45.2383 45.2383C40.2686 50.208 33.5282 53 26.5 53C19.4718 53 12.7314 50.208 7.76167 45.2383C2.79196 40.2686 0 33.5282 0 26.5C0 19.4718 2.79196 12.7314 7.76167 7.76167C12.7314 2.79196 19.4718 0 26.5 0ZM14.9062 24.8438C14.467 24.8438 14.0457 25.0182 13.7351 25.3289C13.4245 25.6395 13.25 26.0607 13.25 26.5C13.25 26.9393 13.4245 27.3605 13.7351 27.6711C14.0457 27.9818 14.467 28.1562 14.9062 28.1562H34.0956L26.9836 35.2649C26.8296 35.4189 26.7075 35.6017 26.6241 35.8029C26.5408 36.0041 26.4979 36.2197 26.4979 36.4375C26.4979 36.6553 26.5408 36.8709 26.6241 37.0721C26.7075 37.2733 26.8296 37.4561 26.9836 37.6101C27.1376 37.7641 27.3204 37.8863 27.5216 37.9696C27.7228 38.0529 27.9385 38.0958 28.1562 38.0958C28.374 38.0958 28.5897 38.0529 28.7909 37.9696C28.9921 37.8863 29.1749 37.7641 29.3289 37.6101L39.2664 27.6726C39.4206 27.5188 39.543 27.336 39.6265 27.1348C39.71 26.9336 39.753 26.7179 39.753 26.5C39.753 26.2821 39.71 26.0664 39.6265 25.8652C39.543 25.664 39.4206 25.4812 39.2664 25.3274L29.3289 15.3899C29.1749 15.2359 28.9921 15.1137 28.7909 15.0304C28.5897 14.9471 28.374 14.9042 28.1562 14.9042C27.9385 14.9042 27.7228 14.9471 27.5216 15.0304C27.3204 15.1137 27.1376 15.2359 26.9836 15.3899C26.8296 15.5439 26.7075 15.7267 26.6241 15.9279C26.5408 16.1291 26.4979 16.3447 26.4979 16.5625C26.4979 16.7803 26.5408 16.9959 26.6241 17.1971C26.7075 17.3983 26.8296 17.5811 26.9836 17.7351L34.0956 24.8438H14.9062Z" fill="#2F3161"/>
</svg>
