<svg width="1440" height="1295" viewBox="0 0 1440 1295" fill="none" xmlns="http://www.w3.org/2000/svg">
<g clip-path="url(#clip0_807_410)">
<path fill-rule="evenodd" clip-rule="evenodd" d="M16.2527 713.755C-59.1837 704.417 -127.907 758 -137.245 833.436C-146.583 908.873 -92.9996 977.596 -17.5633 986.934C57.8731 996.272 126.596 942.689 135.934 867.252C145.272 791.816 91.689 723.093 16.2527 713.755ZM8.81301 773.854C-33.4313 768.624 -71.9163 798.631 -77.1456 840.875C-82.3749 883.12 -52.3683 921.605 -10.1239 926.834C32.1205 932.063 70.6054 902.057 75.8347 859.812C81.064 817.568 51.0574 779.083 8.81301 773.854Z" fill="url(#paint0_linear_807_410)"/>
<circle cx="-90.5" cy="258.5" r="205.5" fill="#66C2ED"/>
<circle cx="1530.5" cy="258.5" r="205.5" fill="#66C2ED"/>
<path fill-rule="evenodd" clip-rule="evenodd" d="M1257.25 1004.75C1181.82 995.417 1113.09 1049 1103.75 1124.44C1094.42 1199.87 1148 1268.6 1223.44 1277.93C1298.87 1287.27 1367.6 1233.69 1376.93 1158.25C1386.27 1082.82 1332.69 1014.09 1257.25 1004.75ZM1249.81 1064.85C1207.57 1059.62 1169.08 1089.63 1163.85 1131.88C1158.62 1174.12 1188.63 1212.6 1230.88 1217.83C1273.12 1223.06 1311.6 1193.06 1316.83 1150.81C1322.06 1108.57 1292.06 1070.08 1249.81 1064.85Z" fill="url(#paint1_linear_807_410)"/>
</g>
<defs>
<linearGradient id="paint0_linear_807_410" x1="-17.5633" y1="986.934" x2="16.2527" y2="713.755" gradientUnits="userSpaceOnUse">
<stop stop-color="#EBC803"/>
<stop offset="1" stop-color="#EBC803" stop-opacity="0.26"/>
</linearGradient>
<linearGradient id="paint1_linear_807_410" x1="1223.44" y1="1277.93" x2="1257.25" y2="1004.75" gradientUnits="userSpaceOnUse">
<stop stop-color="#EBC803"/>
<stop offset="1" stop-color="#EBC803" stop-opacity="0.26"/>
</linearGradient>
<clipPath id="clip0_807_410">
<rect width="1440" height="1295" fill="white"/>
</clipPath>
</defs>
</svg>
