<svg width="1440" height="406" viewBox="0 0 1440 406" fill="none" xmlns="http://www.w3.org/2000/svg">
<g clip-path="url(#clip0_755_982)">
<path d="M0 604H1440V24C931.84 164.099 621.186 176.083 0 24V604Z" fill="#5BA3CF" fill-opacity="0.41"/>
<path d="M0 478H1440V7.99997C931.84 148.099 621.186 160.083 0 7.99997V478Z" fill="#5BA3CF" fill-opacity="0.18"/>
<path d="M0 597H1440V47C931.84 180.243 621.186 191.641 0 47V597Z" fill="url(#paint0_linear_755_982)"/>
<circle cx="1257.99" cy="515.993" r="315.359" transform="rotate(75.0618 1257.99 515.993)" fill="url(#paint1_linear_755_982)"/>
<mask id="mask0_755_982" style="mask-type:alpha" maskUnits="userSpaceOnUse" x="942" y="200" width="632" height="632">
<circle cx="1257.99" cy="515.993" r="315.359" transform="rotate(75.0618 1257.99 515.993)" fill="url(#paint2_linear_755_982)"/>
</mask>
<g mask="url(#mask0_755_982)">
<circle cx="1372.75" cy="579.373" r="132.954" transform="rotate(-54.1202 1372.75 579.373)" fill="url(#paint3_linear_755_982)" fill-opacity="0.38"/>
<circle cx="1066.57" cy="539.085" r="121.463" transform="rotate(-54.1202 1066.57 539.085)" fill="url(#paint4_linear_755_982)" fill-opacity="0.38"/>
<rect x="1129.55" y="815.033" width="185.73" height="628.036" rx="92.8652" transform="rotate(-142.163 1129.55 815.033)" fill="url(#paint5_linear_755_982)" fill-opacity="0.38"/>
<rect width="35.4371" height="119.828" rx="17.7185" transform="matrix(0.789757 0.61342 0.61342 -0.789757 1114.7 398.818)" fill="url(#paint6_linear_755_982)"/>
</g>
<circle cx="-23.3762" cy="363.624" r="248.063" transform="rotate(75.0618 -23.3762 363.624)" fill="url(#paint7_linear_755_982)"/>
<mask id="mask1_755_982" style="mask-type:alpha" maskUnits="userSpaceOnUse" x="-272" y="115" width="497" height="497">
<circle cx="-23.3762" cy="363.624" r="248.063" transform="rotate(75.0618 -23.3762 363.624)" fill="url(#paint8_linear_755_982)"/>
</mask>
<g mask="url(#mask1_755_982)">
<circle cx="66.8952" cy="413.479" r="104.582" transform="rotate(-54.1202 66.8952 413.479)" fill="url(#paint9_linear_755_982)" fill-opacity="0.38"/>
<rect x="-124.413" y="598.85" width="146.096" height="494.016" rx="73.0482" transform="rotate(-142.163 -124.413 598.85)" fill="url(#paint10_linear_755_982)" fill-opacity="0.38"/>
<rect x="31.5977" y="697.09" width="89.1024" height="301.294" rx="44.5512" transform="rotate(-142.163 31.5977 697.09)" fill="url(#paint11_linear_755_982)" fill-opacity="0.38"/>
</g>
</g>
<defs>
<linearGradient id="paint0_linear_755_982" x1="720" y1="494" x2="720" y2="46.9976" gradientUnits="userSpaceOnUse">
<stop stop-color="#374574"/>
<stop offset="1" stop-color="#66C2ED"/>
</linearGradient>
<linearGradient id="paint1_linear_755_982" x1="1420.26" y1="398.733" x2="470.04" y2="1111.47" gradientUnits="userSpaceOnUse">
<stop stop-color="#2F3161"/>
<stop offset="1" stop-color="#66C2ED"/>
</linearGradient>
<linearGradient id="paint2_linear_755_982" x1="1420.26" y1="398.733" x2="470.04" y2="1111.47" gradientUnits="userSpaceOnUse">
<stop stop-color="#2F3161"/>
<stop offset="1" stop-color="#66C2ED"/>
</linearGradient>
<linearGradient id="paint3_linear_755_982" x1="1369.59" y1="400.799" x2="1372.75" y2="712.327" gradientUnits="userSpaceOnUse">
<stop stop-color="#66C2ED"/>
<stop offset="1" stop-color="#66C2ED" stop-opacity="0"/>
</linearGradient>
<linearGradient id="paint4_linear_755_982" x1="1063.68" y1="375.946" x2="1066.57" y2="660.548" gradientUnits="userSpaceOnUse">
<stop stop-color="#66C2ED"/>
<stop offset="1" stop-color="#66C2ED" stop-opacity="0"/>
</linearGradient>
<linearGradient id="paint5_linear_755_982" x1="1233.18" y1="1044.41" x2="1222.72" y2="1443.08" gradientUnits="userSpaceOnUse">
<stop stop-color="#66C2ED"/>
<stop offset="1" stop-color="#66C2ED" stop-opacity="0"/>
</linearGradient>
<linearGradient id="paint6_linear_755_982" x1="19.9058" y1="-42.1673" x2="9.28862" y2="153.335" gradientUnits="userSpaceOnUse">
<stop stop-color="#2F3161"/>
<stop offset="1" stop-color="#2F3161" stop-opacity="0"/>
</linearGradient>
<linearGradient id="paint7_linear_755_982" x1="104.265" y1="271.387" x2="-643.183" y2="832.031" gradientUnits="userSpaceOnUse">
<stop stop-color="#2F3161"/>
<stop offset="1" stop-color="#66C2ED"/>
</linearGradient>
<linearGradient id="paint8_linear_755_982" x1="104.265" y1="271.387" x2="-643.183" y2="832.031" gradientUnits="userSpaceOnUse">
<stop stop-color="#2F3161"/>
<stop offset="1" stop-color="#66C2ED"/>
</linearGradient>
<linearGradient id="paint9_linear_755_982" x1="64.4066" y1="273.011" x2="66.8952" y2="518.061" gradientUnits="userSpaceOnUse">
<stop stop-color="#66C2ED"/>
<stop offset="1" stop-color="#66C2ED" stop-opacity="0"/>
</linearGradient>
<linearGradient id="paint10_linear_755_982" x1="-42.8947" y1="779.282" x2="-51.1187" y2="1092.87" gradientUnits="userSpaceOnUse">
<stop stop-color="#66C2ED"/>
<stop offset="1" stop-color="#66C2ED" stop-opacity="0"/>
</linearGradient>
<linearGradient id="paint11_linear_755_982" x1="81.3147" y1="807.134" x2="76.299" y2="998.388" gradientUnits="userSpaceOnUse">
<stop stop-color="#66C2ED"/>
<stop offset="1" stop-color="#66C2ED" stop-opacity="0"/>
</linearGradient>
<clipPath id="clip0_755_982">
<rect width="1440" height="406" fill="white"/>
</clipPath>
</defs>
</svg>
