<svg width="1462" height="2970" viewBox="0 0 1462 2970" fill="none" xmlns="http://www.w3.org/2000/svg">
<mask id="mask0_977_527" style="mask-type:alpha" maskUnits="userSpaceOnUse" x="0" y="15" width="1462" height="2955">
<path d="M812.561 115.056C494.956 35.0215 347.587 43.3648 0 143.382V276.999H1462V115.056C1201.46 197.811 1170.08 191.134 817.3 116.064L812.561 115.056Z" fill="#D3E7F3"/>
<path d="M812.561 135.056C494.956 55.0215 347.587 63.3648 0 163.382V296.999H1462V135.056C1201.46 217.811 1170.08 211.134 817.3 136.064L812.561 135.056Z" fill="#A8CCE2"/>
<path d="M812.561 152.546C494.956 73.2665 347.587 81.5311 0 180.605V2920H1462V152.546C1201.46 234.521 1170.08 227.907 817.3 153.545L812.561 152.546Z" fill="url(#paint0_linear_977_527)"/>
<path d="M843.711 2860.99C1116.14 2915.46 1247.32 2908.09 1462 2860.99V2959.04H0V2860.99C290.372 2804.61 471.355 2799.21 843.711 2860.99Z" fill="#AAD0E7"/>
<path d="M843.711 2850.48C1116.14 2904.96 1247.32 2897.59 1462 2850.48V2948.53H0V2850.48C290.372 2794.11 471.355 2788.71 843.711 2850.48Z" fill="white" fill-opacity="0.48"/>
<path d="M843.711 2871.1C1116.14 2925.57 1247.32 2918.2 1462 2871.1V2969.15H0V2871.1C290.372 2814.72 471.355 2809.32 843.711 2871.1Z" fill="white"/>
<circle cx="1230.34" cy="153.498" r="137.632" transform="rotate(-172.943 1230.34 153.498)" fill="#EBC803"/>
<circle cx="1230.34" cy="153.497" r="77.074" transform="rotate(-172.943 1230.34 153.497)" fill="white"/>
</mask>
<g mask="url(#mask0_977_527)">
<path d="M906.605 132.082C547.941 52.0106 381.521 60.3577 -10.9999 160.421V294.099H1640V132.082C1345.77 214.875 1310.34 208.195 911.957 133.091L906.605 132.082Z" fill="#D3E7F3"/>
<path d="M906.605 152.119C547.941 72.4236 381.521 80.7316 -10.9999 180.325V313.375H1640V152.119C1345.77 234.523 1310.34 227.875 911.957 153.123L906.605 152.119Z" fill="#A8CCE2"/>
<path d="M906.605 169.094C547.941 89.8013 381.521 98.0673 -10.9999 197.157V2937H1640V169.094C1345.77 251.082 1310.34 244.467 911.957 170.093L906.605 169.094Z" fill="url(#paint1_linear_977_527)"/>
<circle cx="1335.14" cy="633.137" r="152.968" transform="rotate(-125.144 1335.14 633.137)" fill="url(#paint2_linear_977_527)" fill-opacity="0.38"/>
<circle cx="1230.66" cy="995.656" r="362.831" fill="url(#paint3_linear_977_527)"/>
<mask id="mask1_977_527" style="mask-type:alpha" maskUnits="userSpaceOnUse" x="867" y="632" width="727" height="727">
<circle cx="1230.66" cy="995.656" r="362.831" transform="rotate(92.3916 1230.66 995.656)" fill="url(#paint4_linear_977_527)"/>
</mask>
<g mask="url(#mask1_977_527)">
<circle cx="1314.04" cy="848.041" r="152.968" transform="rotate(-129.182 1314.04 848.041)" fill="url(#paint5_linear_977_527)" fill-opacity="0.38"/>
<circle cx="1199.55" cy="1215.3" r="139.747" transform="rotate(-129.182 1199.55 1215.3)" fill="url(#paint6_linear_977_527)" fill-opacity="0.38"/>
<rect x="1524.99" y="1227.13" width="213.689" height="722.577" rx="106.845" transform="rotate(142.775 1524.99 1227.13)" fill="url(#paint7_linear_977_527)" fill-opacity="0.38"/>
<rect x="1722.65" y="1043.69" width="130.326" height="440.69" rx="65.1632" transform="rotate(142.775 1722.65 1043.69)" fill="url(#paint8_linear_977_527)" fill-opacity="0.38"/>
<path d="M1045.57 1103.96C1052.38 1112.93 1065.17 1114.67 1074.13 1107.86V1107.86C1083.1 1101.05 1084.84 1088.26 1078.03 1079.3L1019.3 1001.98C1012.49 993.018 999.698 991.271 990.733 998.082V998.082C981.768 1004.89 980.021 1017.68 986.832 1026.65L1045.57 1103.96Z" fill="url(#paint9_linear_977_527)"/>
<path d="M1406.07 809.211C1412.88 818.176 1425.67 819.922 1434.63 813.111V813.111C1443.6 806.3 1445.35 793.511 1438.53 784.546L1379.8 707.233C1372.99 698.268 1360.2 696.521 1351.23 703.332V703.332C1342.27 710.143 1340.52 722.932 1347.33 731.897L1406.07 809.211Z" fill="url(#paint10_linear_977_527)"/>
<path d="M1433.89 1047.04C1440.71 1056 1453.49 1057.75 1462.46 1050.94V1050.94C1471.42 1044.12 1473.17 1031.34 1466.36 1022.37L1407.62 945.057C1400.81 936.092 1388.02 934.346 1379.06 941.156V941.156C1370.09 947.967 1368.35 960.756 1375.16 969.721L1433.89 1047.04Z" fill="url(#paint11_linear_977_527)"/>
</g>
<circle cx="11.3816" cy="578.382" r="152.968" transform="rotate(-30.4393 11.3816 578.382)" fill="url(#paint12_linear_977_527)" fill-opacity="0.38"/>
<path d="M17.8616 1110.78C36.6319 1135.49 71.8772 1140.3 96.5842 1121.53V1121.53C121.291 1102.76 126.104 1067.52 107.333 1042.81L-54.5412 829.737C-73.3116 805.03 -108.557 800.217 -133.264 818.988V818.988C-157.971 837.758 -162.783 873.003 -144.013 897.71L17.8616 1110.78Z" fill="url(#paint13_linear_977_527)"/>
<path d="M60.0693 1004.21C66.8802 1013.18 79.6691 1014.92 88.6341 1008.11V1008.11C97.5991 1001.3 99.3453 988.512 92.5345 979.547L33.7977 902.234C26.9868 893.269 14.1979 891.522 5.2329 898.333V898.333C-3.73211 905.144 -5.47837 917.933 1.33252 926.898L60.0693 1004.21Z" fill="url(#paint14_linear_977_527)"/>
<path d="M82.0693 736.212C88.8802 745.177 101.669 746.923 110.634 740.112V740.112C119.599 733.301 121.345 720.512 114.534 711.547L55.7977 634.234C48.9868 625.269 36.1979 623.522 27.2329 630.333V630.333C18.2679 637.144 16.5216 649.933 23.3325 658.898L82.0693 736.212Z" fill="url(#paint15_linear_977_527)"/>
<path d="M1406.07 530.211C1412.88 539.176 1425.67 540.922 1434.63 534.111V534.111C1443.6 527.3 1445.35 514.511 1438.53 505.546L1379.8 428.233C1372.99 419.268 1360.2 417.521 1351.23 424.332V424.332C1342.27 431.143 1340.52 443.932 1347.33 452.897L1406.07 530.211Z" fill="url(#paint16_linear_977_527)"/>
<circle r="152.968" transform="matrix(0.575636 -0.817706 -0.817706 -0.575636 75.1736 2004.14)" fill="url(#paint17_linear_977_527)" fill-opacity="0.38"/>
<circle r="362.831" transform="matrix(-1 0 0 1 179.655 2366.66)" fill="url(#paint18_linear_977_527)"/>
<mask id="mask2_977_527" style="mask-type:alpha" maskUnits="userSpaceOnUse" x="-184" y="2003" width="727" height="727">
<circle r="362.831" transform="matrix(0.0417286 0.999129 0.999129 -0.0417286 179.655 2366.66)" fill="url(#paint19_linear_977_527)"/>
</mask>
<g mask="url(#mask2_977_527)">
<circle r="152.968" transform="matrix(0.631786 -0.775143 -0.775143 -0.631786 96.2709 2219.04)" fill="url(#paint20_linear_977_527)" fill-opacity="0.38"/>
<circle r="139.747" transform="matrix(0.631786 -0.775143 -0.775143 -0.631786 210.756 2586.3)" fill="url(#paint21_linear_977_527)" fill-opacity="0.38"/>
<rect width="213.689" height="722.577" rx="106.845" transform="matrix(0.79627 0.604941 0.604941 -0.79627 -114.679 2598.13)" fill="url(#paint22_linear_977_527)" fill-opacity="0.38"/>
<rect width="130.326" height="440.69" rx="65.1632" transform="matrix(0.79627 0.604941 0.604941 -0.79627 -312.337 2414.69)" fill="url(#paint23_linear_977_527)" fill-opacity="0.38"/>
<path d="M364.742 2474.96C357.931 2483.93 345.142 2485.67 336.177 2478.86V2478.86C327.212 2472.05 325.466 2459.26 332.277 2450.3L391.013 2372.98C397.824 2364.02 410.613 2362.27 419.578 2369.08V2369.08C428.543 2375.89 430.29 2388.68 423.479 2397.65L364.742 2474.96Z" fill="url(#paint24_linear_977_527)"/>
<path d="M4.24138 2180.21C-2.5695 2189.18 -15.3584 2190.92 -24.3234 2184.11V2184.11C-33.2884 2177.3 -35.0347 2164.51 -28.2238 2155.55L30.513 2078.23C37.3239 2069.27 50.1128 2067.52 59.0778 2074.33V2074.33C68.0428 2081.14 69.789 2093.93 62.9782 2102.9L4.24138 2180.21Z" fill="url(#paint25_linear_977_527)"/>
<path d="M-23.5833 2418.04C-30.3942 2427 -43.1831 2428.75 -52.1481 2421.94V2421.94C-61.1131 2415.12 -62.8594 2402.34 -56.0485 2393.37L2.68827 2316.06C9.49916 2307.09 22.2881 2305.35 31.2531 2312.16V2312.16C40.2181 2318.97 41.9643 2331.76 35.1534 2340.72L-23.5833 2418.04Z" fill="url(#paint26_linear_977_527)"/>
</g>
<circle r="152.968" transform="matrix(-0.862166 -0.506625 -0.506625 0.862166 1398.93 1949.38)" fill="url(#paint27_linear_977_527)" fill-opacity="0.38"/>
<path d="M1392.45 2481.78C1373.68 2506.49 1338.43 2511.3 1313.73 2492.53V2492.53C1289.02 2473.76 1284.21 2438.52 1302.98 2413.81L1464.85 2200.74C1483.62 2176.03 1518.87 2171.22 1543.57 2189.99V2189.99C1568.28 2208.76 1573.09 2244 1554.32 2268.71L1392.45 2481.78Z" fill="url(#paint28_linear_977_527)"/>
<path d="M1350.24 2375.21C1343.43 2384.18 1330.64 2385.92 1321.68 2379.11V2379.11C1312.71 2372.3 1310.97 2359.51 1317.78 2350.55L1376.51 2273.23C1383.32 2264.27 1396.11 2262.52 1405.08 2269.33V2269.33C1414.04 2276.14 1415.79 2288.93 1408.98 2297.9L1350.24 2375.21Z" fill="url(#paint29_linear_977_527)"/>
<path d="M1328.24 2107.21C1321.43 2116.18 1308.64 2117.92 1299.68 2111.11V2111.11C1290.71 2104.3 1288.97 2091.51 1295.78 2082.55L1354.51 2005.23C1361.32 1996.27 1374.11 1994.52 1383.08 2001.33V2001.33C1392.04 2008.14 1393.79 2020.93 1386.98 2029.9L1328.24 2107.21Z" fill="url(#paint30_linear_977_527)"/>
<path d="M4.24126 1901.21C-2.56963 1910.18 -15.3585 1911.92 -24.3235 1905.11V1905.11C-33.2885 1898.3 -35.0348 1885.51 -28.2239 1876.55L30.5129 1799.23C37.3237 1790.27 50.1126 1788.52 59.0776 1795.33V1795.33C68.0427 1802.14 69.7889 1814.93 62.978 1823.9L4.24126 1901.21Z" fill="url(#paint31_linear_977_527)"/>
<path d="M844.711 2877.83C1117.14 2932.31 1248.32 2924.94 1463 2877.83V2975.88H1V2877.83C291.372 2821.46 472.355 2816.06 844.711 2877.83Z" fill="#AAD0E7"/>
<path d="M844.711 2867.33C1117.14 2921.8 1248.32 2914.43 1463 2867.33V2965.38H1V2867.33C291.372 2810.95 472.355 2805.55 844.711 2867.33Z" fill="white" fill-opacity="0.48"/>
<path d="M844.711 2887.95C1117.14 2942.42 1248.32 2935.05 1463 2887.95V2986H1V2887.95C291.372 2831.57 472.355 2826.17 844.711 2887.95Z" fill="white"/>
<path fill-rule="evenodd" clip-rule="evenodd" d="M1248.25 33.7546C1172.82 24.4166 1104.09 77.9999 1094.76 153.436C1085.42 228.873 1139 297.596 1214.44 306.934C1289.87 316.272 1358.6 262.689 1367.93 187.252C1377.27 111.816 1323.69 43.0926 1248.25 33.7546ZM1240.81 93.8537C1198.57 88.6244 1160.08 118.631 1154.85 160.875C1149.63 203.12 1179.63 241.605 1221.88 246.834C1264.12 252.063 1302.61 222.057 1307.83 179.812C1313.06 137.568 1283.06 99.083 1240.81 93.8537Z" fill="url(#paint32_linear_977_527)"/>
</g>
<defs>
<linearGradient id="paint0_linear_977_527" x1="-440.991" y1="5236.82" x2="2144.75" y2="1248.8" gradientUnits="userSpaceOnUse">
<stop stop-color="#2F3161"/>
<stop offset="1" stop-color="#66C2ED"/>
</linearGradient>
<linearGradient id="paint1_linear_977_527" x1="-509" y1="5254.2" x2="1937.59" y2="993.672" gradientUnits="userSpaceOnUse">
<stop stop-color="#2F3161"/>
<stop offset="1" stop-color="#66C2ED"/>
</linearGradient>
<linearGradient id="paint2_linear_977_527" x1="1096.14" y1="621.76" x2="1408.09" y2="607.033" gradientUnits="userSpaceOnUse">
<stop offset="0.473958" stop-color="white"/>
<stop offset="1" stop-color="white" stop-opacity="0.22"/>
</linearGradient>
<linearGradient id="paint3_linear_977_527" x1="1417.35" y1="860.744" x2="324.09" y2="1680.78" gradientUnits="userSpaceOnUse">
<stop stop-color="#66C2ED"/>
<stop offset="1" stop-color="#2F3161"/>
</linearGradient>
<linearGradient id="paint4_linear_977_527" x1="1417.35" y1="860.744" x2="324.089" y2="1680.78" gradientUnits="userSpaceOnUse">
<stop stop-color="#2F3161"/>
<stop offset="1" stop-color="#66C2ED"/>
</linearGradient>
<linearGradient id="paint5_linear_977_527" x1="1075.04" y1="836.663" x2="1386.99" y2="821.936" gradientUnits="userSpaceOnUse">
<stop offset="0.473958" stop-color="#D6F2FF"/>
<stop offset="1" stop-color="#D6F2FF" stop-opacity="0.22"/>
</linearGradient>
<linearGradient id="paint6_linear_977_527" x1="1099.59" y1="1195.45" x2="1361.47" y2="1327.62" gradientUnits="userSpaceOnUse">
<stop stop-color="#66C2ED"/>
<stop offset="1" stop-color="#66C2ED" stop-opacity="0"/>
</linearGradient>
<linearGradient id="paint7_linear_977_527" x1="1644.22" y1="1491.05" x2="1632.19" y2="1949.72" gradientUnits="userSpaceOnUse">
<stop stop-color="#D6F2FF"/>
<stop offset="1" stop-color="#66C2ED" stop-opacity="0"/>
</linearGradient>
<linearGradient id="paint8_linear_977_527" x1="1795.37" y1="1204.65" x2="1788.03" y2="1484.39" gradientUnits="userSpaceOnUse">
<stop stop-color="#66C2ED"/>
<stop offset="1" stop-color="#66C2ED" stop-opacity="0"/>
</linearGradient>
<linearGradient id="paint9_linear_977_527" x1="1105.49" y1="1144.97" x2="959.689" y2="973.253" gradientUnits="userSpaceOnUse">
<stop stop-color="#A3D3E9"/>
<stop offset="1" stop-color="#A3D3E9" stop-opacity="0.25"/>
</linearGradient>
<linearGradient id="paint10_linear_977_527" x1="1465.99" y1="850.22" x2="1320.19" y2="678.503" gradientUnits="userSpaceOnUse">
<stop stop-color="#A3D3E9"/>
<stop offset="1" stop-color="#A3D3E9" stop-opacity="0.25"/>
</linearGradient>
<linearGradient id="paint11_linear_977_527" x1="1493.81" y1="1088.04" x2="1348.01" y2="916.327" gradientUnits="userSpaceOnUse">
<stop stop-color="#A3D3E9"/>
<stop offset="1" stop-color="#A3D3E9" stop-opacity="0.25"/>
</linearGradient>
<linearGradient id="paint12_linear_977_527" x1="-227.617" y1="567.004" x2="84.3308" y2="552.277" gradientUnits="userSpaceOnUse">
<stop offset="0.473958" stop-color="white"/>
<stop offset="1" stop-color="white" stop-opacity="0.22"/>
</linearGradient>
<linearGradient id="paint13_linear_977_527" x1="182.99" y1="1223.8" x2="-218.818" y2="750.56" gradientUnits="userSpaceOnUse">
<stop stop-color="#A3D3E9" stop-opacity="0.33"/>
<stop offset="1" stop-color="#A3D3E9" stop-opacity="0.25"/>
</linearGradient>
<linearGradient id="paint14_linear_977_527" x1="119.987" y1="1045.22" x2="-25.8108" y2="873.504" gradientUnits="userSpaceOnUse">
<stop stop-color="#A3D3E9"/>
<stop offset="1" stop-color="#A3D3E9" stop-opacity="0.25"/>
</linearGradient>
<linearGradient id="paint15_linear_977_527" x1="141.987" y1="777.221" x2="-3.81083" y2="605.504" gradientUnits="userSpaceOnUse">
<stop stop-color="#A3D3E9"/>
<stop offset="1" stop-color="#A3D3E9" stop-opacity="0.25"/>
</linearGradient>
<linearGradient id="paint16_linear_977_527" x1="1465.99" y1="571.22" x2="1320.19" y2="399.503" gradientUnits="userSpaceOnUse">
<stop stop-color="#A3D3E9"/>
<stop offset="1" stop-color="#A3D3E9" stop-opacity="0.25"/>
</linearGradient>
<linearGradient id="paint17_linear_977_527" x1="-86.0308" y1="141.591" x2="225.917" y2="126.863" gradientUnits="userSpaceOnUse">
<stop offset="0.473958" stop-color="white"/>
<stop offset="1" stop-color="white" stop-opacity="0.22"/>
</linearGradient>
<linearGradient id="paint18_linear_977_527" x1="549.527" y1="227.919" x2="-543.735" y2="1047.95" gradientUnits="userSpaceOnUse">
<stop stop-color="#66C2ED"/>
<stop offset="1" stop-color="#2F3161"/>
</linearGradient>
<linearGradient id="paint19_linear_977_527" x1="549.527" y1="227.919" x2="-543.735" y2="1047.95" gradientUnits="userSpaceOnUse">
<stop stop-color="#2F3161"/>
<stop offset="1" stop-color="#66C2ED"/>
</linearGradient>
<linearGradient id="paint20_linear_977_527" x1="-86.0308" y1="141.591" x2="225.917" y2="126.863" gradientUnits="userSpaceOnUse">
<stop offset="0.473958" stop-color="#D6F2FF"/>
<stop offset="1" stop-color="#D6F2FF" stop-opacity="0.22"/>
</linearGradient>
<linearGradient id="paint21_linear_977_527" x1="39.7842" y1="119.899" x2="301.665" y2="252.072" gradientUnits="userSpaceOnUse">
<stop stop-color="#66C2ED"/>
<stop offset="1" stop-color="#66C2ED" stop-opacity="0"/>
</linearGradient>
<linearGradient id="paint22_linear_977_527" x1="119.234" y1="263.911" x2="107.205" y2="722.586" gradientUnits="userSpaceOnUse">
<stop stop-color="#D6F2FF"/>
<stop offset="1" stop-color="#66C2ED" stop-opacity="0"/>
</linearGradient>
<linearGradient id="paint23_linear_977_527" x1="72.719" y1="160.956" x2="65.3827" y2="440.696" gradientUnits="userSpaceOnUse">
<stop stop-color="#66C2ED"/>
<stop offset="1" stop-color="#66C2ED" stop-opacity="0"/>
</linearGradient>
<linearGradient id="paint24_linear_977_527" x1="304.825" y1="2515.97" x2="450.622" y2="2344.25" gradientUnits="userSpaceOnUse">
<stop stop-color="#A3D3E9"/>
<stop offset="1" stop-color="#A3D3E9" stop-opacity="0.25"/>
</linearGradient>
<linearGradient id="paint25_linear_977_527" x1="-55.6759" y1="2221.22" x2="90.1215" y2="2049.5" gradientUnits="userSpaceOnUse">
<stop stop-color="#A3D3E9"/>
<stop offset="1" stop-color="#A3D3E9" stop-opacity="0.25"/>
</linearGradient>
<linearGradient id="paint26_linear_977_527" x1="-83.5006" y1="2459.04" x2="62.2968" y2="2287.33" gradientUnits="userSpaceOnUse">
<stop stop-color="#A3D3E9"/>
<stop offset="1" stop-color="#A3D3E9" stop-opacity="0.25"/>
</linearGradient>
<linearGradient id="paint27_linear_977_527" x1="-86.0308" y1="141.591" x2="225.917" y2="126.863" gradientUnits="userSpaceOnUse">
<stop offset="0.473958" stop-color="white"/>
<stop offset="1" stop-color="white" stop-opacity="0.22"/>
</linearGradient>
<linearGradient id="paint28_linear_977_527" x1="1227.32" y1="2594.8" x2="1629.13" y2="2121.56" gradientUnits="userSpaceOnUse">
<stop stop-color="#A3D3E9" stop-opacity="0.33"/>
<stop offset="1" stop-color="#A3D3E9" stop-opacity="0.25"/>
</linearGradient>
<linearGradient id="paint29_linear_977_527" x1="1290.32" y1="2416.22" x2="1436.12" y2="2244.5" gradientUnits="userSpaceOnUse">
<stop stop-color="#A3D3E9"/>
<stop offset="1" stop-color="#A3D3E9" stop-opacity="0.25"/>
</linearGradient>
<linearGradient id="paint30_linear_977_527" x1="1268.32" y1="2148.22" x2="1414.12" y2="1976.5" gradientUnits="userSpaceOnUse">
<stop stop-color="#A3D3E9"/>
<stop offset="1" stop-color="#A3D3E9" stop-opacity="0.25"/>
</linearGradient>
<linearGradient id="paint31_linear_977_527" x1="-55.676" y1="1942.22" x2="90.1214" y2="1770.5" gradientUnits="userSpaceOnUse">
<stop stop-color="#A3D3E9"/>
<stop offset="1" stop-color="#A3D3E9" stop-opacity="0.25"/>
</linearGradient>
<linearGradient id="paint32_linear_977_527" x1="1214.44" y1="306.934" x2="1248.25" y2="33.7545" gradientUnits="userSpaceOnUse">
<stop stop-color="#EBC803"/>
<stop offset="1" stop-color="#EBC803" stop-opacity="0.26"/>
</linearGradient>
</defs>
</svg>
