<svg width="1440" height="233" viewBox="0 0 1440 233" fill="none" xmlns="http://www.w3.org/2000/svg">
<g clip-path="url(#clip0_755_1178)">
<rect width="1440" height="233" fill="white"/>
<path d="M1479 218C886.86 88.86 562.504 85.2001 -0.5 218L-28 -197H1479V218Z" fill="#CCEFFF"/>
<path d="M1479 206C886.86 76.86 562.504 73.2001 -0.5 206L-28 -209H1479V206Z" fill="#9DD8F3"/>
<path d="M1479 194C886.86 64.86 562.504 61.2001 -0.5 194L-28 -221H1479V194Z" fill="url(#paint0_linear_755_1178)"/>
<mask id="mask0_755_1178" style="mask-type:alpha" maskUnits="userSpaceOnUse" x="1138" y="-68" width="335" height="335">
<circle cx="1305.5" cy="99.5007" r="166.689" transform="rotate(92.3916 1305.5 99.5007)" fill="url(#paint1_linear_755_1178)"/>
</mask>
<g mask="url(#mask0_755_1178)">
<circle cx="1343.81" cy="31.6838" r="70.2757" transform="rotate(-129.182 1343.81 31.6838)" fill="url(#paint2_linear_755_1178)" fill-opacity="0.38"/>
<rect x="1373.07" y="116.795" width="98.1717" height="220.128" rx="49.0859" transform="rotate(142.775 1373.07 116.795)" fill="url(#paint3_linear_755_1178)" fill-opacity="0.38"/>
<rect x="1531.53" y="121.57" width="59.8737" height="202.459" rx="29.9368" transform="rotate(142.775 1531.53 121.57)" fill="url(#paint4_linear_755_1178)" fill-opacity="0.38"/>
<path d="M1220.47 149.257C1223.6 153.376 1229.47 154.178 1233.59 151.049C1237.71 147.92 1238.51 142.045 1235.38 137.926L1208.4 102.407C1205.27 98.2886 1199.39 97.4863 1195.28 100.615C1191.16 103.744 1190.36 109.62 1193.48 113.738L1220.47 149.257Z" fill="url(#paint5_linear_755_1178)"/>
<path d="M1386.09 13.8453C1389.22 17.9639 1395.09 18.7662 1399.21 15.6372C1403.33 12.5082 1404.13 6.63277 1401 2.51412L1374.02 -33.0049C1370.89 -37.1235 1365.01 -37.9258 1360.89 -34.7968C1356.78 -31.6678 1355.97 -25.7924 1359.1 -21.6737L1386.09 13.8453Z" fill="url(#paint6_linear_755_1178)"/>
<path d="M1398.87 123.105C1402 127.224 1407.87 128.026 1411.99 124.897C1416.11 121.768 1416.91 115.893 1413.79 111.774L1386.8 76.2549C1383.67 72.1362 1377.8 71.334 1373.68 74.463C1369.56 77.592 1368.76 83.4674 1371.89 87.586L1398.87 123.105Z" fill="url(#paint7_linear_755_1178)"/>
<rect width="18.731" height="63.3378" rx="9.36551" transform="matrix(0.79627 -0.604941 -0.604941 -0.79627 1472.32 125.736)" fill="url(#paint8_linear_755_1178)"/>
</g>
<mask id="mask1_755_1178" style="mask-type:alpha" maskUnits="userSpaceOnUse" x="-95" y="-68" width="335" height="335">
<circle r="166.689" transform="matrix(0.0417286 0.999129 0.999129 -0.0417286 72.5 99.5007)" fill="url(#paint9_linear_755_1178)"/>
</mask>
<g mask="url(#mask1_755_1178)">
<circle r="70.2757" transform="matrix(0.631786 -0.775143 -0.775143 -0.631786 34.1921 31.6838)" fill="url(#paint10_linear_755_1178)" fill-opacity="0.38"/>
<rect width="98.1717" height="220.128" rx="49.0859" transform="matrix(0.79627 0.604941 0.604941 -0.79627 4.93164 116.795)" fill="url(#paint11_linear_755_1178)" fill-opacity="0.38"/>
<rect width="59.8737" height="202.459" rx="29.9368" transform="matrix(0.79627 0.604941 0.604941 -0.79627 -153.527 121.57)" fill="url(#paint12_linear_755_1178)" fill-opacity="0.38"/>
<path d="M157.532 149.257C154.403 153.376 148.527 154.178 144.409 151.049C140.29 147.92 139.488 142.045 142.617 137.926L169.601 102.407C172.73 98.2886 178.606 97.4863 182.724 100.615C186.843 103.744 187.645 109.62 184.516 113.738L157.532 149.257Z" fill="url(#paint13_linear_755_1178)"/>
<path d="M-8.08734 13.8453C-11.2164 17.9639 -17.0918 18.7662 -21.2104 15.6372C-25.3291 12.5082 -26.1313 6.63277 -23.0023 2.51412L3.98218 -33.0049C7.1112 -37.1235 12.9866 -37.9258 17.1052 -34.7968C21.2239 -31.6678 22.0261 -25.7924 18.8971 -21.6737L-8.08734 13.8453Z" fill="url(#paint14_linear_755_1178)"/>
<path d="M-20.8705 123.105C-23.9996 127.224 -29.875 128.026 -33.9936 124.897C-38.1123 121.768 -38.9145 115.893 -35.7855 111.774L-8.80102 76.2549C-5.67201 72.1362 0.203388 71.334 4.32204 74.463C8.44069 77.592 9.24294 83.4674 6.11392 87.586L-20.8705 123.105Z" fill="url(#paint15_linear_755_1178)"/>
</g>
<path fill-rule="evenodd" clip-rule="evenodd" d="M1275.99 184.623C1301.57 152.044 1295.9 104.897 1263.32 79.3162C1230.74 53.7357 1183.59 59.4089 1158.01 91.9876C1132.43 124.566 1138.11 171.714 1170.69 197.294C1203.26 222.874 1250.41 217.201 1275.99 184.623ZM1250.04 164.243C1264.36 145.999 1261.18 119.597 1242.94 105.272C1224.7 90.9465 1198.29 94.1235 1183.97 112.368C1169.64 130.612 1172.82 157.014 1191.06 171.339C1209.31 185.664 1235.71 182.487 1250.04 164.243Z" fill="url(#paint16_linear_755_1178)"/>
<path fill-rule="evenodd" clip-rule="evenodd" d="M227.083 209.389C266.341 222.6 308.876 201.484 322.086 162.225C335.297 122.967 314.181 80.4328 274.922 67.2223C235.664 54.0119 193.13 75.1279 179.919 114.386C166.709 153.644 187.825 196.179 227.083 209.389ZM237.608 178.113C259.592 185.511 283.412 173.686 290.81 151.701C298.207 129.717 286.382 105.897 264.398 98.4995C242.413 91.1016 218.594 102.927 211.196 124.911C203.798 146.896 215.623 170.715 237.608 178.113Z" fill="url(#paint17_linear_755_1178)"/>
</g>
<defs>
<linearGradient id="paint0_linear_755_1178" x1="725" y1="336.5" x2="673" y2="-102.5" gradientUnits="userSpaceOnUse">
<stop stop-color="#66C2ED"/>
<stop offset="1" stop-color="#528CB9"/>
</linearGradient>
<linearGradient id="paint1_linear_755_1178" x1="1391.27" y1="37.5204" x2="889.011" y2="414.254" gradientUnits="userSpaceOnUse">
<stop stop-color="#2F3161"/>
<stop offset="1" stop-color="#66C2ED"/>
</linearGradient>
<linearGradient id="paint2_linear_755_1178" x1="1234.01" y1="26.4568" x2="1377.32" y2="19.691" gradientUnits="userSpaceOnUse">
<stop offset="0.473958" stop-color="#D6F2FF"/>
<stop offset="1" stop-color="#D6F2FF" stop-opacity="0.22"/>
</linearGradient>
<linearGradient id="paint3_linear_755_1178" x1="1427.85" y1="197.194" x2="1425.42" y2="336.98" gradientUnits="userSpaceOnUse">
<stop stop-color="#D6F2FF"/>
<stop offset="1" stop-color="#66C2ED" stop-opacity="0"/>
</linearGradient>
<linearGradient id="paint4_linear_755_1178" x1="1564.94" y1="195.516" x2="1561.57" y2="324.032" gradientUnits="userSpaceOnUse">
<stop stop-color="#66C2ED"/>
<stop offset="1" stop-color="#66C2ED" stop-opacity="0"/>
</linearGradient>
<linearGradient id="paint5_linear_755_1178" x1="1248" y1="168.098" x2="1181.01" y2="89.2084" gradientUnits="userSpaceOnUse">
<stop stop-color="#A3D3E9"/>
<stop offset="1" stop-color="#A3D3E9" stop-opacity="0.25"/>
</linearGradient>
<linearGradient id="paint6_linear_755_1178" x1="1413.61" y1="32.6854" x2="1346.63" y2="-46.2037" gradientUnits="userSpaceOnUse">
<stop stop-color="#A3D3E9"/>
<stop offset="1" stop-color="#A3D3E9" stop-opacity="0.25"/>
</linearGradient>
<linearGradient id="paint7_linear_755_1178" x1="1426.4" y1="141.945" x2="1359.42" y2="63.0561" gradientUnits="userSpaceOnUse">
<stop stop-color="#A3D3E9"/>
<stop offset="1" stop-color="#A3D3E9" stop-opacity="0.25"/>
</linearGradient>
<linearGradient id="paint8_linear_755_1178" x1="10.5216" y1="-22.2884" x2="4.90969" y2="81.0484" gradientUnits="userSpaceOnUse">
<stop stop-color="#2F3161"/>
<stop offset="1" stop-color="#2F3161" stop-opacity="0"/>
</linearGradient>
<linearGradient id="paint9_linear_755_1178" x1="252.46" y1="104.709" x2="-249.799" y2="481.443" gradientUnits="userSpaceOnUse">
<stop stop-color="#2F3161"/>
<stop offset="1" stop-color="#66C2ED"/>
</linearGradient>
<linearGradient id="paint10_linear_755_1178" x1="-39.5237" y1="65.0486" x2="103.789" y2="58.2828" gradientUnits="userSpaceOnUse">
<stop offset="0.473958" stop-color="#D6F2FF"/>
<stop offset="1" stop-color="#D6F2FF" stop-opacity="0.22"/>
</linearGradient>
<linearGradient id="paint11_linear_755_1178" x1="54.7775" y1="80.3989" x2="52.3466" y2="220.185" gradientUnits="userSpaceOnUse">
<stop stop-color="#D6F2FF"/>
<stop offset="1" stop-color="#66C2ED" stop-opacity="0"/>
</linearGradient>
<linearGradient id="paint12_linear_755_1178" x1="33.4081" y1="73.9455" x2="30.0377" y2="202.462" gradientUnits="userSpaceOnUse">
<stop stop-color="#66C2ED"/>
<stop offset="1" stop-color="#66C2ED" stop-opacity="0"/>
</linearGradient>
<linearGradient id="paint13_linear_755_1178" x1="130.005" y1="168.098" x2="196.986" y2="89.2084" gradientUnits="userSpaceOnUse">
<stop stop-color="#A3D3E9"/>
<stop offset="1" stop-color="#A3D3E9" stop-opacity="0.25"/>
</linearGradient>
<linearGradient id="paint14_linear_755_1178" x1="-35.6142" y1="32.6854" x2="31.3672" y2="-46.2037" gradientUnits="userSpaceOnUse">
<stop stop-color="#A3D3E9"/>
<stop offset="1" stop-color="#A3D3E9" stop-opacity="0.25"/>
</linearGradient>
<linearGradient id="paint15_linear_755_1178" x1="-48.3974" y1="141.945" x2="18.5839" y2="63.0561" gradientUnits="userSpaceOnUse">
<stop stop-color="#A3D3E9"/>
<stop offset="1" stop-color="#A3D3E9" stop-opacity="0.25"/>
</linearGradient>
<linearGradient id="paint16_linear_755_1178" x1="1158.01" y1="91.9876" x2="1275.99" y2="184.623" gradientUnits="userSpaceOnUse">
<stop offset="0.552083" stop-color="#EBC803"/>
<stop offset="1" stop-color="#EBC803" stop-opacity="0"/>
</linearGradient>
<linearGradient id="paint17_linear_755_1178" x1="274.922" y1="67.2223" x2="227.083" y2="209.389" gradientUnits="userSpaceOnUse">
<stop offset="0.552083" stop-color="#EBC803"/>
<stop offset="1" stop-color="#EBC803" stop-opacity="0"/>
</linearGradient>
<clipPath id="clip0_755_1178">
<rect width="1440" height="233" fill="white"/>
</clipPath>
</defs>
</svg>
