<svg width="1024" height="668" viewBox="0 0 1024 668" fill="none" xmlns="http://www.w3.org/2000/svg">
<g clip-path="url(#clip0_756_1284)">
<path d="M844.605 606.702C485.941 667.843 319.521 661.469 -73 585.064V482.99H1578V606.702C1283.77 543.483 1248.34 548.584 849.957 605.932L844.605 606.702Z" fill="#D3E7F3"/>
<path d="M844.605 591.402C485.941 652.256 319.521 645.912 -73 569.865V468.27H1578V591.402C1283.77 528.48 1248.34 533.557 849.957 590.635L844.605 591.402Z" fill="#A8CCE2"/>
<path d="M844.605 578.44C485.941 638.986 319.521 632.674 -73 557.011V-308.003H1578V578.44C1283.77 515.835 1248.34 520.886 849.957 577.677L844.605 578.44Z" fill="url(#paint0_linear_756_1284)"/>
<circle r="152.968" transform="matrix(-0.575636 0.817706 0.817706 0.575636 994.137 455.174)" fill="url(#paint1_linear_756_1284)" fill-opacity="0.38"/>
<circle r="362.831" transform="matrix(1 0 0 -1 958.656 92.6555)" fill="url(#paint2_linear_756_1284)"/>
<mask id="mask0_756_1284" style="mask-type:alpha" maskUnits="userSpaceOnUse" x="595" y="-271" width="727" height="727">
<circle r="362.831" transform="matrix(-0.0417286 -0.999129 -0.999129 0.0417286 958.655 92.6549)" fill="url(#paint3_linear_756_1284)"/>
</mask>
<g mask="url(#mask0_756_1284)">
<circle r="152.968" transform="matrix(-0.631786 0.775143 0.775143 0.631786 1042.04 240.27)" fill="url(#paint4_linear_756_1284)" fill-opacity="0.38"/>
<circle r="139.747" transform="matrix(-0.631786 0.775143 0.775143 0.631786 927.555 -126.99)" fill="url(#paint5_linear_756_1284)" fill-opacity="0.38"/>
<rect width="213.689" height="722.577" rx="106.845" transform="matrix(-0.79627 -0.604941 -0.604941 0.79627 1252.99 -138.824)" fill="url(#paint6_linear_756_1284)" fill-opacity="0.38"/>
<path d="M773.569 -15.6503C780.379 -24.6153 793.168 -26.3616 802.133 -19.5507V-19.5507C811.098 -12.7398 812.845 0.0491123 806.034 9.01412L747.297 86.3279C740.486 95.2929 727.697 97.0392 718.732 90.2283V90.2283C709.767 83.4174 708.021 70.6285 714.832 61.6635L773.569 -15.6503Z" fill="url(#paint7_linear_756_1284)"/>
</g>
<circle r="152.968" transform="matrix(0.862166 0.506625 0.506625 -0.862166 59.3815 435.616)" fill="url(#paint8_linear_756_1284)" fill-opacity="0.38"/>
<path d="M65.8614 -22.7818C84.6318 -47.4888 119.877 -52.3014 144.584 -33.531V-33.531C169.291 -14.7607 174.104 20.4847 155.333 45.1916L-6.54136 258.263C-25.3117 282.97 -60.557 287.783 -85.264 269.012V269.012C-109.971 250.242 -114.784 214.997 -96.0132 190.29L65.8614 -22.7818Z" fill="url(#paint9_linear_756_1284)"/>
<path d="M108.069 83.7872C114.88 74.8222 127.669 73.0759 136.634 79.8868V79.8868C145.599 86.6977 147.345 99.4866 140.534 108.452L81.7976 185.765C74.9867 194.73 62.1978 196.477 53.2328 189.666V189.666C44.2678 182.855 42.5215 170.066 49.3324 161.101L108.069 83.7872Z" fill="url(#paint10_linear_756_1284)"/>
<path d="M130.069 351.787C136.88 342.822 149.669 341.076 158.634 347.887V347.887C167.599 354.698 169.345 367.487 162.534 376.452L103.798 453.765C96.9867 462.73 84.1978 464.477 75.2328 457.666V457.666C66.2678 450.855 64.5215 438.066 71.3324 429.101L130.069 351.787Z" fill="url(#paint11_linear_756_1284)"/>
<path d="M1055.07 164.543C1061.88 155.578 1074.67 153.832 1083.63 160.643V160.643C1092.6 167.454 1094.34 180.242 1087.53 189.207L1028.8 266.521C1021.99 275.486 1009.2 277.233 1000.23 270.422V270.422C991.267 263.611 989.521 250.822 996.332 241.857L1055.07 164.543Z" fill="url(#paint12_linear_756_1284)"/>
</g>
<defs>
<linearGradient id="paint0_linear_756_1284" x1="-571.08" y1="-3304.48" x2="1019.97" y2="323.981" gradientUnits="userSpaceOnUse">
<stop stop-color="#2F3161"/>
<stop offset="1" stop-color="#66C2ED"/>
</linearGradient>
<linearGradient id="paint1_linear_756_1284" x1="-86.0308" y1="141.591" x2="225.917" y2="126.863" gradientUnits="userSpaceOnUse">
<stop offset="0.473958" stop-color="white"/>
<stop offset="1" stop-color="white" stop-opacity="0.22"/>
</linearGradient>
<linearGradient id="paint2_linear_756_1284" x1="549.527" y1="227.919" x2="-543.735" y2="1047.95" gradientUnits="userSpaceOnUse">
<stop stop-color="#66C2ED"/>
<stop offset="1" stop-color="#2F3161"/>
</linearGradient>
<linearGradient id="paint3_linear_756_1284" x1="549.527" y1="227.919" x2="-543.735" y2="1047.95" gradientUnits="userSpaceOnUse">
<stop stop-color="#2F3161"/>
<stop offset="1" stop-color="#66C2ED"/>
</linearGradient>
<linearGradient id="paint4_linear_756_1284" x1="-86.0308" y1="141.591" x2="225.917" y2="126.863" gradientUnits="userSpaceOnUse">
<stop offset="0.473958" stop-color="#D6F2FF"/>
<stop offset="1" stop-color="#D6F2FF" stop-opacity="0.22"/>
</linearGradient>
<linearGradient id="paint5_linear_756_1284" x1="39.7842" y1="119.899" x2="301.665" y2="252.072" gradientUnits="userSpaceOnUse">
<stop stop-color="#66C2ED"/>
<stop offset="1" stop-color="#66C2ED" stop-opacity="0"/>
</linearGradient>
<linearGradient id="paint6_linear_756_1284" x1="119.234" y1="263.911" x2="107.205" y2="722.586" gradientUnits="userSpaceOnUse">
<stop stop-color="#D6F2FF"/>
<stop offset="1" stop-color="#66C2ED" stop-opacity="0"/>
</linearGradient>
<linearGradient id="paint7_linear_756_1284" x1="833.486" y1="-56.6593" x2="687.688" y2="115.058" gradientUnits="userSpaceOnUse">
<stop stop-color="#A3D3E9"/>
<stop offset="1" stop-color="#A3D3E9" stop-opacity="0.25"/>
</linearGradient>
<linearGradient id="paint8_linear_756_1284" x1="-86.0308" y1="141.591" x2="225.917" y2="126.863" gradientUnits="userSpaceOnUse">
<stop offset="0.473958" stop-color="white"/>
<stop offset="1" stop-color="white" stop-opacity="0.22"/>
</linearGradient>
<linearGradient id="paint9_linear_756_1284" x1="230.989" y1="-135.8" x2="-170.818" y2="337.44" gradientUnits="userSpaceOnUse">
<stop stop-color="#A3D3E9" stop-opacity="0.33"/>
<stop offset="1" stop-color="#A3D3E9" stop-opacity="0.25"/>
</linearGradient>
<linearGradient id="paint10_linear_756_1284" x1="167.986" y1="42.7782" x2="22.1891" y2="214.495" gradientUnits="userSpaceOnUse">
<stop stop-color="#A3D3E9"/>
<stop offset="1" stop-color="#A3D3E9" stop-opacity="0.25"/>
</linearGradient>
<linearGradient id="paint11_linear_756_1284" x1="189.986" y1="310.778" x2="44.1891" y2="482.495" gradientUnits="userSpaceOnUse">
<stop stop-color="#A3D3E9"/>
<stop offset="1" stop-color="#A3D3E9" stop-opacity="0.25"/>
</linearGradient>
<linearGradient id="paint12_linear_756_1284" x1="1114.99" y1="123.534" x2="969.189" y2="295.251" gradientUnits="userSpaceOnUse">
<stop stop-color="#A3D3E9"/>
<stop offset="1" stop-color="#A3D3E9" stop-opacity="0.25"/>
</linearGradient>
<clipPath id="clip0_756_1284">
<rect width="1024" height="668" fill="white"/>
</clipPath>
</defs>
</svg>
